<?xml version='1.0' encoding='utf-8'?>
<svg xmlns="http://www.w3.org/2000/svg" version="1.1" id="Layer_1" x="0px" y="0px" width="100%" viewBox="0 0 1024 544" enable-background="new 0 0 1024 544" xml:space="preserve">
<path fill="#E1F5EE" opacity="1.000000" stroke="none" d=" M338.827332,380.372284   C334.026337,378.725830 329.853607,376.681152 325.846222,374.254028   C324.355621,373.351135 322.823059,371.626648 320.884979,372.823669   C318.866699,374.070343 319.251129,376.366486 319.426117,378.311066   C319.710236,381.469391 319.823914,384.572174 319.485199,387.759674   C319.098267,391.401123 317.673584,391.874084 314.561371,390.517853   C300.905487,384.566803 292.006317,374.199432 287.056702,360.443054   C285.674561,356.601807 283.820923,355.241638 279.875458,355.280548   C264.044983,355.436554 248.212128,355.338928 232.380142,355.352783   C225.224289,355.359009 224.382217,356.184082 224.061432,363.291656   C223.994888,364.765778 224.111221,366.282959 222.799728,368.242859   C214.132004,364.864380 204.999527,362.343994 197.740311,355.928864   C194.943878,353.457581 193.499664,350.013611 192.703522,346.336426   C192.426361,345.056335 192.225845,343.019989 191.441940,342.708313   C186.017776,340.551666 187.773819,336.001190 187.659988,332.142181   C187.527374,327.646790 187.813339,323.136505 187.612320,318.646332   C187.387421,313.623108 189.623993,310.413269 194.123383,308.544678   C203.962311,304.458649 213.806442,300.384918 223.629730,296.261566   C224.990616,295.690338 226.716705,295.194916 227.475479,294.107422   C234.402344,284.179718 245.897568,281.343445 255.694855,275.981171   C258.641144,274.368591 260.101196,273.187500 259.763733,269.759735   C258.322998,255.125580 259.682831,240.850204 265.898193,227.310120   C268.532349,221.571686 271.877319,216.310638 276.470856,211.439926   C281.718323,216.291794 283.210388,222.522720 285.605896,228.276520   C286.256104,229.838165 285.909332,232.377747 288.369049,232.532715   C290.637268,232.675613 291.160828,230.442581 291.982452,228.885376   C299.287018,215.040848 309.393066,203.737122 322.553650,195.240585   C328.202057,191.593948 329.067505,192.177917 330.416565,198.861099   C332.216217,207.776550 332.808044,216.595963 330.566772,225.558167   C329.968842,227.949081 329.207611,230.687134 330.790131,234.312012   C344.716919,224.908905 359.230347,217.527771 376.772949,215.434525   C375.861694,234.047836 368.929443,249.499695 356.968750,263.714478   C369.186249,262.658508 380.794769,262.010101 392.827484,266.543518   C385.739349,279.830536 375.003662,288.598480 362.777618,295.924561   C364.754425,298.319855 366.899445,297.599731 368.772034,297.611420   C381.103882,297.688477 393.440277,297.486847 405.766541,297.763000   C410.138428,297.860962 413.520081,296.594421 416.481018,293.563049   C418.691772,291.299683 421.078186,289.207825 423.286804,286.942505   C427.463470,282.658600 427.680450,278.361877 423.837158,273.659943   C421.626099,270.954895 419.273865,268.339691 416.772644,265.902100   C409.580627,258.893036 407.317383,250.049591 407.119904,240.447983   C406.952026,232.284760 406.885895,224.117325 406.930664,215.952621   C406.956268,211.279358 408.163300,210.552673 412.369507,212.437759   C414.340302,213.320984 416.189697,214.472733 418.105988,215.480255   C421.776794,217.410263 423.425049,216.641602 423.568390,212.516510   C423.724731,208.018448 423.864532,203.563461 424.775970,199.121124   C427.531830,185.689056 435.476868,175.691284 445.631165,167.117355   C446.098907,166.722397 446.815857,166.622528 447.523865,166.342911   C448.029053,166.913528 448.558594,167.343704 448.871887,167.896454   C449.873810,169.664429 449.804321,172.741455 452.684753,172.362625   C455.142120,172.039444 455.321594,169.243637 456.149200,167.296005   C463.325012,150.409515 474.541687,137.295868 491.453186,129.500565   C496.446411,127.198975 497.033539,127.624329 497.369568,133.096741   C497.678680,138.130997 496.835205,143.274353 498.619476,149.992096   C513.383423,135.223282 529.417542,124.919060 549.915466,122.124908   C551.270508,131.803009 546.978943,139.748672 543.932373,149.488754   C561.794312,145.568649 578.609863,143.524185 595.843750,149.194031   C592.674011,157.374527 587.137329,163.236252 580.268311,169.945175   C593.619507,173.648148 606.499268,176.002792 616.355713,185.887970   C609.612244,192.425995 601.900208,196.074524 593.478577,198.313278   C586.164185,200.257690 585.696289,201.260818 589.946838,207.498962   C594.864136,214.715622 597.285583,222.725311 597.381287,231.436722   C597.434387,236.269028 597.395020,241.102371 597.398865,245.935242   C597.408020,257.637085 608.828674,270.482971 620.353455,269.264252   C642.448975,266.927612 654.223633,280.719635 665.363525,295.807281   C670.919800,303.332733 674.023804,312.277740 676.989624,321.140503   C678.150024,324.608032 677.353149,326.620667 673.131714,326.225830   C659.354431,324.937256 645.576416,323.720673 632.918518,317.359650   C629.507507,315.645508 625.831299,314.312988 624.198669,310.360016   C623.964417,309.792877 623.325989,308.995758 622.854980,308.982086   C613.977051,308.724792 610.617065,300.830963 604.985840,296.117401   C603.230408,294.648010 601.998901,292.527252 599.603271,291.898346   C595.874268,296.826324 596.304016,309.375305 600.583923,313.650055   C606.711914,319.770691 613.091064,325.639221 619.309631,331.670319   C621.005249,333.314789 622.968445,333.783081 625.225952,333.778595   C646.390564,333.736511 667.555237,333.707794 688.719788,333.734253   C691.394653,333.737579 693.585876,332.865997 695.476074,331.048462   C703.520081,323.313660 711.561462,315.576050 719.619690,307.856049   C722.625305,304.976715 722.688538,302.035431 719.663513,299.238922   C711.595947,291.780701 703.460510,284.395844 695.324524,277.012146   C694.896179,276.623383 694.213257,276.515076 692.624573,275.842682   C695.730774,281.680481 701.199036,284.361237 703.969421,290.056915   C699.212402,290.450592 695.107910,291.502380 691.367432,288.175354   C674.191467,272.898041 656.983582,257.656494 639.756714,242.436539   C636.338989,239.416962 634.236511,235.786499 634.036072,231.193024   C633.862244,227.210083 634.816406,223.559021 637.796143,220.713852   C647.794983,211.166641 657.822693,201.649704 667.841370,192.123260   C673.482239,186.759506 680.471924,184.774963 687.966370,184.726028   C711.130066,184.574768 734.295654,184.708282 757.459351,184.558029   C760.899475,184.535706 762.914978,185.705368 764.670532,188.622696   C769.134583,196.040314 773.822144,203.330139 778.631531,210.529968   C780.642456,213.540543 780.131714,215.284592 776.931396,216.705048   C772.734619,218.567856 768.337646,219.235153 763.807495,219.241348   C741.476196,219.271927 719.142822,219.464920 696.814941,219.198105   C689.748535,219.113663 686.025513,223.601562 682.008118,227.964462   C680.291687,229.828568 681.439575,231.809006 683.026001,233.222183   C686.505676,236.321884 690.094849,239.299301 693.659546,242.302597   C695.351135,243.727707 697.195435,243.557343 699.296936,243.164688   C707.632263,241.607330 714.751465,242.647293 721.381775,249.411530   C734.195496,262.484100 748.086060,274.494598 761.356140,287.128235   C771.663208,296.940979 771.315491,308.038300 761.020874,317.960999   C743.748108,334.609833 726.465820,351.253540 709.474915,368.187775   C702.416992,375.222137 694.497375,378.579468 684.482788,378.431000   C662.322815,378.102509 640.154175,378.211700 617.990356,378.352051   C602.894165,378.447632 589.968689,373.338623 579.071838,363.004974   C571.818298,356.126343 564.721680,349.081604 557.437866,342.235657   C551.413025,336.572998 547.599243,329.716492 545.704224,321.738342   C545.314453,320.097595 545.138855,318.178436 543.297974,317.697083   C541.407593,317.202789 540.270569,318.827667 539.318481,320.173859   C529.454468,334.121368 515.067017,341.634766 499.893799,348.088043   C496.071625,349.713684 494.677734,348.523254 494.737823,344.558319   C494.928162,331.994537 496.863098,319.757385 500.624664,307.737274   C501.954224,303.488708 505.628906,302.314453 509.229462,299.605652   C504.234009,298.117828 505.783752,295.583252 507.406403,292.927368   C514.770752,280.873657 524.419800,270.761841 534.397400,260.910675   C536.999084,258.341980 539.623779,255.724319 541.781433,252.793152   C546.149292,246.859436 545.470520,239.472275 540.422058,234.090927   C540.308044,233.969421 540.171753,233.866196 540.071594,233.734879   C533.302612,224.862823 524.705994,220.272263 513.284058,222.286743   C513.122437,222.315231 512.951355,222.290298 512.784729,222.290054   C493.413239,222.263260 493.398926,222.251053 480.927429,236.882629   C479.497070,238.560669 477.368774,240.237549 479.572205,243.085236   C483.291931,242.476242 484.852814,238.756851 487.867554,237.219391   C490.763367,235.742599 493.571716,232.075623 496.660522,233.560944   C499.748596,235.045914 498.037842,239.306732 498.146027,242.332855   C498.354309,248.158005 498.272980,253.997391 498.176453,259.828613   C498.033661,268.453217 495.478088,276.197174 489.492310,282.618256   C488.583832,283.592804 487.833191,284.740570 486.828094,285.594757   C480.669128,290.829102 477.308685,297.269257 477.465912,305.530579   C477.573303,311.175446 475.562988,316.420410 472.685211,321.120789   C460.337921,341.288239 444.170502,355.287811 418.673920,354.297791   C408.689636,353.910156 398.678101,354.217377 388.678955,354.222870   C380.540894,354.227325 379.982117,354.980835 382.236725,362.699371   C382.367279,363.146210 382.253632,363.664368 382.253632,364.819824   C376.840179,365.699982 371.437744,365.508118 366.093658,364.722870   C361.989655,364.119843 357.958771,362.998138 353.912750,362.034119   C352.624725,361.727264 351.343170,360.979797 350.155945,362.091583   C348.757965,363.400787 349.472839,364.916351 350.078003,366.251343   C351.880920,370.228394 352.600494,374.502960 353.678192,378.680817   C354.090851,380.280701 354.709167,381.873077 353.383942,383.781647   C348.462769,384.015991 343.931396,381.776794 338.827332,380.372284  M265.363647,332.625854   C272.094849,333.294373 276.900024,332.030975 279.281250,324.207581   C281.754089,316.083374 291.085480,311.884949 300.080109,313.000519   C302.386902,313.286621 304.723114,313.705627 307.023895,313.597351   C312.811951,313.324982 318.752441,309.462952 319.920288,305.307587   C315.389526,303.344696 310.178253,307.107910 305.339508,303.821564   C309.587646,299.389923 314.503693,296.081543 317.612823,291.100861   C321.422485,284.997925 321.887848,278.404449 318.762817,274.607666   C316.860413,274.937073 316.719116,276.585144 316.353577,277.979095   C314.060974,286.721924 309.066528,293.546082 301.888092,298.947723   C296.413910,303.066925 290.660522,306.717529 284.642670,309.964661   C281.836212,311.478973 279.304291,313.214630 277.290527,315.810547   C269.088623,326.383545 257.670959,328.371521 246.453094,320.888611   C242.526886,318.269592 238.501328,316.571411 233.907394,316.780304   C229.361862,316.987000 226.964462,315.748840 227.551819,310.682251   C227.847839,308.128693 226.829468,305.759583 223.659912,306.229187   C219.687790,306.817749 216.023239,308.508575 212.589706,310.577423   C211.267242,311.374298 211.121536,312.818420 211.764847,314.136688   C214.122437,318.967712 211.617340,322.027771 208.035110,324.737823   C206.440292,325.944397 204.699966,327.618103 202.709946,326.317719   C200.953598,325.170074 201.538300,322.964203 202.107193,321.237946   C202.640472,319.619720 202.886917,318.177216 201.012695,317.524200   C199.229004,316.902740 197.712540,317.645721 196.787094,319.291626   C193.215240,325.644104 197.185593,332.617371 204.414825,332.624664   C224.409866,332.644867 244.404953,332.619141 265.363647,332.625854  M219.826523,346.727814   C243.957413,346.719788 268.088287,346.704407 292.219177,346.713470   C295.062988,346.714539 297.883240,346.659119 300.568207,345.575134   C305.490356,343.587952 308.940399,338.170654 308.646149,332.911072   C308.396454,328.447266 304.258057,323.359253 299.682373,321.917358   C294.857361,320.396820 291.236420,322.611786 288.172668,325.934540   C286.869904,327.347382 285.390747,329.387756 287.452393,331.172272   C289.209747,332.693359 290.747620,331.530579 292.032776,329.886810   C294.013916,327.352875 296.654449,326.577148 299.572784,328.034698   C302.411255,329.452423 303.593689,332.036224 303.125519,335.104431   C302.629028,338.357758 300.674591,340.578705 297.320740,341.116852   C295.528961,341.404327 293.670929,341.332275 291.842834,341.331726   C264.217163,341.323730 236.591507,341.292542 208.965851,341.294220   C206.348663,341.294373 203.279099,340.814484 202.379395,344.283875   C201.595322,347.307312 203.533722,349.329712 205.763687,350.957031   C206.961761,351.831390 208.304504,352.540192 209.655090,353.165924   C212.283981,354.383850 214.250320,353.833466 214.871277,350.748383   C215.333511,348.451843 215.998230,346.503815 219.826523,346.727814  M295.105316,292.021057   C297.523651,290.453827 300.568848,289.513916 301.287231,286.202301   C299.523102,284.011200 297.253754,284.388245 295.147003,284.380127   C284.319336,284.338501 273.490540,284.425140 262.664337,284.289185   C259.384613,284.247986 256.459869,284.942841 253.621384,286.525330   C249.696075,288.713776 245.672607,290.725311 241.715103,292.857086   C239.493591,294.053680 237.288925,295.395538 236.552612,297.998352   C236.107483,299.571838 235.776962,301.425629 237.085968,302.746704   C238.492645,304.166382 239.886475,302.835754 241.153473,302.201447   C244.278793,300.636719 247.534943,299.238922 250.410690,297.290283   C255.924316,293.554169 261.897369,292.586487 268.427063,292.708344   C277.070557,292.869659 285.739746,293.247894 295.105316,292.021057  M538.059631,212.431488   C533.938477,207.865463 529.866028,203.254150 525.676453,198.751755   C523.449036,196.358002 523.528381,194.640152 526.447937,192.859680   C529.705933,190.872849 532.827332,188.638870 535.867676,186.327682   C537.462158,185.115601 540.281250,184.060181 538.930542,181.417877   C537.832764,179.270447 535.143738,179.778320 533.023926,179.764374   C531.664551,179.755417 530.422668,180.333344 529.429443,181.293701   C525.726379,184.874298 521.958923,188.393509 518.376160,192.091339   C515.952515,194.592819 515.686157,197.191925 518.480896,199.884445   C528.394958,209.435776 538.202881,219.097137 548.094666,228.671707   C549.197388,229.739136 550.311340,231.351807 552.390930,230.051910   C552.390930,229.569809 552.595947,228.916229 552.360657,228.645996   C547.783691,223.389374 543.155334,218.177505 538.059631,212.431488  M576.429504,209.478333   C577.983337,211.954529 578.469177,214.639740 578.389709,217.559509   C578.263306,222.203995 578.650208,226.873001 578.337524,231.499008   C577.995667,236.556152 580.530640,240.009918 583.805664,243.231705   C584.770386,244.180801 585.883728,245.077560 587.330872,244.377518   C588.529053,243.797928 588.693237,242.560440 588.661987,241.364395   C588.506165,235.401428 588.932983,229.400436 587.562500,223.513412   C585.522583,214.750916 576.495178,203.406464 569.193665,201.002014   C571.725830,203.886398 573.886475,206.347641 576.429504,209.478333  M477.272736,227.763901   C482.577637,221.694885 487.947205,215.696564 496.169189,211.718887   C491.242218,207.806473 486.542328,209.323303 482.176117,209.426743   C480.402832,209.468750 478.596466,210.476685 479.275513,212.955948   C481.051666,214.527191 483.702118,212.915359 485.555786,214.981979   C484.194641,218.724487 481.715027,220.982513 477.616241,221.203995   C474.963104,221.347351 472.295044,221.240280 469.645752,221.421646   C467.565247,221.564072 465.450165,222.224792 465.393951,224.722824   C465.339569,227.140366 467.600647,226.639603 469.122925,227.005493   C469.884399,227.188522 470.599182,227.565948 471.371704,227.869858   C471.268341,228.597198 471.376007,229.238754 471.108429,229.509766   C467.766388,232.894852 464.861206,237.011246 459.434113,237.184113   C457.047333,237.260132 455.674194,238.330658 455.495514,240.730804   C455.372070,242.389175 455.112244,244.333908 456.809753,245.242737   C458.933655,246.379837 460.119476,244.392059 461.378693,243.185242   C466.537018,238.241394 471.642670,233.242615 477.272736,227.763901  M393.729736,321.878357   C396.902100,324.361664 396.494965,326.713135 393.659485,329.231995   C390.922729,331.663086 388.238739,334.181549 385.775452,336.883972   C383.635345,339.231842 380.465210,340.870422 379.759033,344.472229   C382.418304,346.460754 384.359528,345.210266 386.105988,343.538086   C390.433685,339.394409 394.807404,335.288666 398.947693,330.962006   C404.145142,325.530670 404.020905,324.669617 398.545288,319.252960   C395.348999,316.091064 392.191071,312.889801 388.959686,309.764282   C387.890564,308.730225 386.695038,307.805695 385.465179,306.965973   C384.556915,306.345825 383.495361,306.413727 382.779419,307.324646   C382.051392,308.250885 382.211884,309.451172 383.149109,309.957031   C387.927338,312.536072 389.298584,318.064240 393.729736,321.878357  M453.181396,205.738602   C448.789795,210.909271 447.430542,222.386459 450.702759,228.007874   C453.185760,226.199753 454.572845,224.000610 454.159912,220.836792   C453.724152,217.497711 453.776733,214.114746 454.872040,210.954926   C455.925629,207.915451 457.246216,204.767227 461.105591,204.476135   C463.280579,206.804474 461.106415,210.095184 463.680054,212.317017   C466.204620,211.671021 468.195770,210.194824 468.491211,207.476227   C468.831055,204.348892 468.683014,201.158188 468.605011,197.998520   C468.514435,194.331436 466.703735,193.347931 463.891235,195.706802   C460.330353,198.693344 457.061951,202.028595 453.181396,205.738602  M481.079407,200.744171   C482.298981,200.489395 483.506653,199.905197 483.580322,198.635071   C483.833008,194.277771 487.106964,192.052826 489.760193,189.351913   C491.392059,187.690765 493.164276,186.102066 494.470795,184.203690   C496.009583,181.967789 495.285400,180.560501 492.387573,180.269501   C481.251587,179.151291 474.616180,185.396683 475.307617,196.232605   C475.523285,199.612473 476.939484,201.133987 481.079407,200.744171  M405.724091,343.054504   C410.234985,338.658020 414.789886,334.305420 419.237396,329.845703   C421.332855,327.744507 422.998566,325.193909 420.664581,322.390564   C416.313324,317.164337 411.578217,312.273010 406.445129,307.795837   C405.108978,306.630402 403.390472,305.939850 402.032410,307.561523   C400.520996,309.366302 402.241455,310.605225 403.356293,311.740692   C406.726410,315.173035 410.055817,318.658112 413.610565,321.892395   C416.518005,324.537659 416.393738,326.639954 413.521545,329.236664   C409.835327,332.569336 406.402588,336.185699 402.919464,339.737579   C401.848419,340.829773 400.952850,342.164734 402.170288,343.696167   C403.205994,344.998993 404.230591,344.081177 405.724091,343.054504  M467.254944,251.821518   C462.089844,253.596161 459.500519,258.362183 455.815704,261.827362   C453.229004,264.259888 451.351074,264.685913 448.855438,261.771545   C446.265686,258.747314 443.321075,256.019897 440.449310,253.247971   C439.427856,252.261993 438.220245,250.669846 436.641052,251.898117   C434.833374,253.304077 435.957153,255.007965 437.096008,256.216217   C440.973145,260.329529 444.936218,264.363770 448.936218,268.358368   C450.942108,270.361511 453.156433,270.196960 455.136230,268.318176   C459.114563,264.542938 463.053101,260.722809 466.910095,256.824280   C468.174438,255.546310 469.548737,254.043671 467.254944,251.821518  M505.397095,192.835876   C507.618591,190.595627 509.875244,188.388794 512.047119,186.101425   C513.184143,184.903931 514.621338,183.449753 513.043884,181.834473   C511.666473,180.424011 510.182037,181.674103 509.137146,182.674850   C505.901428,185.773849 502.682373,188.903061 499.655487,192.202759   C497.640625,194.399109 497.294464,197.198868 499.354218,199.451279   C503.158142,203.611038 507.238251,207.523331 511.297668,211.440903   C512.343750,212.450409 513.844238,213.542526 515.204651,212.012375   C516.461426,210.598770 515.500610,209.131622 514.453735,208.037781   C511.469299,204.919632 508.426880,201.854111 505.329529,198.847977   C503.495453,197.067856 502.868469,195.338348 505.397095,192.835876  M426.975891,295.493958   C425.028412,297.309631 422.994934,299.043427 421.161926,300.968170   C419.806396,302.391541 418.077148,304.201569 419.957520,306.121033   C421.582581,307.779816 423.469238,306.440186 424.795258,305.184937   C429.024139,301.181732 433.404846,297.287231 437.200836,292.895996   C439.857635,289.822571 439.238739,286.163269 436.850342,281.840393   C435.306061,285.030518 434.531921,287.425720 433.113983,289.345428   C431.551483,291.460815 429.397705,293.139435 426.975891,295.493958  M458.298157,310.796234   C457.609772,311.508423 456.851532,312.166595 456.249573,312.945587   C455.365204,314.089966 454.027557,315.195770 454.745850,316.863190   C455.442169,318.479614 457.069489,318.470459 458.562256,318.599823   C465.142822,319.170013 470.241272,310.609802 467.267151,303.971069   C463.677643,305.313660 463.677643,305.313660 458.298157,310.796234  M250.899078,313.636871   C259.317535,318.723083 269.231110,315.822601 271.718811,307.539795   C272.209229,305.906982 272.773224,304.128265 270.516266,303.407898   C268.754211,302.845551 267.869446,304.009186 267.102325,305.497101   C262.814392,313.814178 261.142792,314.341522 253.192108,310.007385   C252.124268,309.425293 251.021072,308.791687 249.990646,309.706970   C248.649765,310.898041 249.435181,312.087555 250.899078,313.636871  M436.830750,236.252457   C441.739288,242.885162 443.852478,244.390045 449.029663,243.520737   C440.244110,238.391510 442.195557,230.005386 441.364441,221.242126   C436.796814,226.286591 435.554291,230.574127 436.830750,236.252457  M452.938843,328.152283   C449.654297,326.476471 446.134216,327.104553 442.776947,327.486237   C439.438782,327.865753 437.182526,331.854614 439.103027,333.397675   C442.063416,335.776337 445.790527,334.946289 449.068542,334.290039   C451.574036,333.788452 454.032288,332.197693 452.938843,328.152283  M447.393982,309.676208   C450.891754,307.656006 452.469452,296.131012 449.560577,293.509247   C448.021851,292.122437 445.962799,292.133514 445.784790,294.264526   C445.360168,299.347961 443.985840,304.593079 447.393982,309.676208  M570.386597,225.416275   C570.406128,223.814636 569.745728,222.534088 568.474792,221.597885   C566.349670,220.032394 563.360596,218.758026 561.915161,221.161118   C560.020020,224.311722 563.790649,225.924637 565.651794,227.702469   C567.773926,229.729645 569.528259,228.959366 570.386597,225.416275  M431.701813,319.561249   C433.083801,321.207214 434.680817,322.287659 436.770294,320.853516   C439.031555,319.301453 438.741943,316.886200 438.504883,314.605042   C438.348694,313.101715 437.354248,312.102722 435.826691,312.414459   C433.386871,312.912262 431.852692,314.575745 431.249268,316.984497   C431.100525,317.578339 431.329742,318.266876 431.701813,319.561249  M600.238525,270.601440   C596.596252,270.824341 597.284058,273.675110 597.507507,275.719482   C597.819885,278.577393 599.229736,280.896912 602.917542,281.253387   C604.018860,277.285370 604.108459,273.799438 600.238525,270.601440  M465.941162,289.358856   C466.618011,290.257202 467.645386,290.918823 468.286407,289.721100   C469.405060,287.630859 469.588104,285.418427 467.523102,283.516418   C465.036682,284.774292 465.362549,286.754639 465.941162,289.358856  z" />
<path fill="#E1F5EE" opacity="1.000000" stroke="none" d=" M822.071777,66.926704   C841.003418,87.024292 844.063232,112.567474 829.497620,137.011169   C815.698425,160.168686 800.887451,182.723404 786.497192,205.527908   C785.983521,206.342010 785.211548,206.993134 784.668091,207.599564   C782.328857,207.547516 781.750732,205.775986 780.893677,204.430984   C766.583374,181.972488 751.967468,159.699661 738.102478,136.968948   C722.111084,110.752113 728.081543,79.101501 751.845276,61.599617   C772.674683,46.258862 802.926758,47.577934 822.071777,66.926704  M791.162659,88.177399   C781.772583,85.133873 773.053345,87.739647 768.316467,95.005020   C763.590515,102.253647 764.087158,111.978027 769.500061,118.179344   C775.095642,124.589951 784.600098,126.801903 792.206543,123.130150   C798.467590,120.107841 802.179565,115.038612 802.790283,107.973656   C803.564575,99.016205 799.685425,92.625191 791.162659,88.177399  z" />
<path fill="#E1F5EE" opacity="1.000000" stroke="none" d=" M499.829773,409.996887   C504.505096,409.194702 506.524109,411.392975 508.151672,415.041595   C514.931702,430.240967 521.904541,445.355164 528.915039,460.450195   C530.056335,462.907623 530.627380,465.922119 533.623718,467.172485   C537.963562,453.585358 549.650818,445.546844 557.558716,434.721710   C559.125610,432.576874 561.036438,430.686035 562.728271,428.628418   C563.550232,427.628723 564.673340,426.634216 563.985229,425.109070   C563.249146,423.477417 561.738403,423.288025 560.189941,423.285217   C554.193298,423.274231 548.184326,423.037781 542.203979,423.348083   C537.501648,423.592041 535.600281,422.105072 535.871704,417.158691   C536.234619,410.542480 536.295776,410.085480 542.426941,410.049286   C556.085999,409.968597 569.745483,409.924500 583.404785,409.915863   C602.127075,409.903992 620.849304,409.937225 639.571594,409.954620   C645.422363,409.960052 645.208679,409.975250 645.547974,417.195129   C645.757507,421.652863 644.477661,423.459625 639.720154,423.356598   C625.691650,423.052795 626.178894,422.206482 626.269287,436.938812   C626.330566,446.933197 626.184143,456.930054 626.353516,466.921997   C626.415833,470.595764 625.022583,471.864960 621.403015,471.974091   C610.675476,472.297607 610.678284,472.414307 610.674377,461.851501   C610.670593,451.357025 610.709106,440.862274 610.649780,430.368134   C610.616821,424.538055 609.404663,423.385162 603.607971,423.263245   C602.109314,423.231750 600.600952,423.143585 599.112000,423.264893   C594.187927,423.666107 589.871765,423.319336 590.493713,416.311340   C581.141357,431.222778 568.596863,442.927673 558.632935,456.509949   C560.112122,459.093719 562.286194,458.627502 564.180786,458.645905   C571.009766,458.712158 577.845825,458.834930 584.667175,458.594788   C588.393555,458.463654 589.967773,459.720764 589.420776,463.461914   C589.301575,464.277161 589.288391,465.145142 589.426514,465.954681   C590.292542,471.029938 588.096191,471.919281 583.279724,471.784729   C569.148499,471.390045 554.993530,471.901489 540.857239,471.607361   C534.275452,471.470428 527.729614,472.424774 521.128418,471.731598   C518.068176,471.410309 516.143005,470.508636 515.361389,467.425812   C513.738770,461.025391 509.497375,458.600891 503.062988,459.348358   C500.763062,459.615509 498.376099,459.601685 496.076935,459.321472   C488.322540,458.376404 482.156250,459.821655 480.336273,468.756714   C480.068054,470.073303 479.198029,471.290161 477.706818,471.487152   C472.964569,472.113495 468.221222,472.432404 463.157318,470.972717   C465.926361,462.793671 469.791626,455.636627 473.146301,448.253540   C477.621368,438.404633 482.212128,428.584503 486.093079,418.498016   C488.595825,411.993347 492.272125,408.663818 499.829773,409.996887  M498.368622,446.742584   C500.824860,446.765900 503.095367,446.483887 503.754822,443.509399   C504.353027,440.811188 500.833038,431.680878 498.788910,431.577148   C493.719849,431.319855 494.983032,436.483307 493.041840,438.960419   C492.845184,439.211334 492.775940,439.566864 492.665863,439.880249   C490.684204,445.523132 491.266998,446.341064 498.368622,446.742584  z" />
<path fill="#E1F5EE" opacity="1.000000" stroke="none" d=" M194.922958,419.103333   C194.963303,410.112579 194.966827,409.945801 203.383286,410.124054   C213.166077,410.331177 223.019119,409.014557 232.711075,411.553345   C241.408997,413.831757 247.179779,419.025726 248.854309,427.954559   C250.438873,436.403717 248.421539,443.956818 241.216553,449.252106   C238.251312,451.431396 238.483276,453.226349 240.322586,455.818909   C243.665451,460.530731 246.843948,465.359161 250.126450,470.191040   C242.630081,473.983917 233.605621,471.712891 229.424744,465.410126   C227.952957,463.191406 226.366470,461.045776 224.960312,458.787109   C222.238098,454.414429 218.050659,454.817047 213.854736,455.283203   C212.359818,455.449280 211.487701,456.476959 211.285095,457.942078   C211.103271,459.256836 210.979660,460.592834 210.987198,461.918549   C211.054871,473.822906 210.901260,471.754150 200.029770,471.910614   C196.152451,471.966400 194.814301,470.383270 194.851501,466.533234   C195.002747,450.885651 194.919037,435.235779 194.922958,419.103333  M231.173035,426.335083   C227.044785,422.701721 221.986710,423.211212 217.029465,423.038116   C212.965118,422.896210 211.095490,424.292114 210.859894,428.679840   C210.089310,443.031860 208.909195,442.684509 224.745117,441.472870   C232.488953,440.880402 235.515076,433.783936 231.173035,426.335083  z" />
<path fill="#E1F5EE" opacity="1.000000" stroke="none" d=" M668.129639,454.664612   C668.207031,458.329559 670.339111,458.751221 672.926453,458.738403   C680.585876,458.700439 688.251343,458.904480 695.902893,458.656799   C700.008179,458.523926 701.494812,459.919861 701.458618,464.080933   C701.390137,471.948120 701.590881,471.918823 693.657776,471.903076   C681.668884,471.879242 669.678650,471.809082 657.691589,471.960907   C653.701172,472.011475 652.013489,470.684875 652.048462,466.494965   C652.190430,449.512177 652.163757,432.526917 652.039124,415.543732   C652.009583,411.520050 653.476868,409.841400 657.583740,409.883087   C670.570374,410.015045 683.559570,409.977631 696.546997,409.896667   C699.595703,409.877686 700.843689,411.036835 700.425049,414.088043   C700.245300,415.398102 700.221741,416.761505 700.357483,418.076935   C700.739624,421.779846 698.987183,423.223297 695.447754,423.179993   C688.455078,423.094482 681.458557,423.214264 674.468933,423.037689   C670.604553,422.940063 668.086182,423.591125 668.098511,428.369934   C668.110046,432.828217 670.003418,434.195526 674.157959,434.046326   C679.978638,433.837280 685.818237,434.140961 691.637817,433.917053   C695.500488,433.768463 697.073242,435.161407 696.964294,439.099091   C696.744507,447.039825 696.799744,447.108948 688.765259,447.091553   C684.269653,447.081818 679.773865,447.077454 675.278381,447.042450   C668.148438,446.986938 668.148499,446.976929 668.129639,454.664612  z" />
<path fill="#E1F5EE" opacity="1.000000" stroke="none" d=" M388.122009,431.227722   C390.806824,425.278931 393.442810,419.719666 395.799744,414.044525   C396.978149,411.207184 398.684631,410.063202 401.807739,409.978882   C412.754730,409.683105 412.767395,409.567322 417.304382,419.303009   C424.603577,434.966095 431.881165,450.639282 439.163422,466.310211   C439.789886,467.658356 440.566559,468.976929 440.085388,471.122894   C435.321259,473.029602 430.188110,471.640991 425.279877,471.017700   C422.769684,470.698914 422.409882,467.149841 421.585632,464.897247   C420.105286,460.851624 417.463287,459.191528 413.243195,459.317566   C407.925995,459.476318 402.598450,459.465027 397.279785,459.340088   C393.472107,459.250671 391.091461,460.855255 389.496582,464.309082   C385.732208,472.461060 380.567200,474.196564 370.443054,470.409149   C376.293152,457.436432 382.125580,444.502930 388.122009,431.227722  M404.832977,430.535706   C402.130219,432.372894 401.758423,435.519653 400.646637,438.204712   C397.368683,446.121216 398.158447,447.170746 406.735809,446.766998   C407.558868,446.728271 408.398224,446.711212 409.196320,446.533081   C410.845612,446.164917 412.135956,445.021759 411.663055,443.394348   C410.319153,438.769379 409.753693,433.706207 404.832977,430.535706  z" />
<path fill="#E1F5EE" opacity="1.000000" stroke="none" d=" M832.554321,471.470947   C831.027161,471.518860 829.853638,471.485992 828.703186,471.633118   C822.369446,472.443207 817.790955,470.784241 816.428467,463.704895   C815.815247,460.518646 813.496277,459.249908 810.141541,459.341644   C803.825623,459.514282 797.498535,459.488739 791.181702,459.326355   C788.045715,459.245758 786.380920,460.477570 785.230713,463.397552   C781.724304,472.299652 775.925781,474.518890 766.384949,470.689331   C766.651184,466.859924 768.746216,463.607666 770.270935,460.208252   C776.800110,445.650604 783.479187,431.160156 790.037048,416.615265   C792.626038,410.873199 802.227722,407.485809 807.908325,410.400574   C809.244507,411.086151 809.630859,412.373901 810.175781,413.557037   C818.449097,431.520386 826.693787,449.496979 834.974243,467.457001   C836.040039,469.768738 836.726379,471.729401 832.554321,471.470947  M797.470093,434.926880   C796.240662,438.584137 793.913452,441.892059 793.646484,446.119659   C797.134583,447.086273 800.429993,446.765564 803.689331,446.700104   C807.398376,446.625671 808.254456,444.614410 806.952881,441.414398   C805.959656,438.972351 804.909302,436.551239 803.804077,434.157928   C803.147095,432.735229 803.122009,430.560577 801.050598,430.463959   C798.661316,430.352570 798.579895,432.712769 797.470093,434.926880  z" />
<path fill="#E1F5EE" opacity="1.000000" stroke="none" d=" M258.653625,428.001099   C258.653137,423.173370 258.764923,418.841309 258.612885,414.518463   C258.510101,411.596893 259.656219,410.393555 262.580292,410.080048   C272.668549,408.998474 273.336975,409.517426 273.338501,419.580383   C273.339783,427.903717 273.170837,436.232452 273.412933,444.549011   C273.694427,454.218719 278.958374,459.393555 287.520752,458.912506   C295.126648,458.485199 299.592010,453.229980 299.448944,443.395782   C299.315887,434.251160 299.329376,425.105316 299.136261,415.966187   C299.047577,411.768250 299.943329,409.901001 304.531647,409.910217   C314.447510,409.930206 314.430786,409.736481 314.403931,419.691498   C314.381073,428.177368 314.229248,436.667694 314.441345,445.148376   C314.927429,464.580811 301.121246,474.173218 283.947357,472.981323   C267.588837,471.846008 258.691620,461.967804 258.648102,445.480286   C258.633179,439.820435 258.650787,434.160553 258.653625,428.001099  z" />
<path fill="#E1F5EE" opacity="1.000000" stroke="none" d=" M729.642700,426.564453   C721.650574,434.317383 720.799866,445.905029 727.398193,453.246216   C733.814270,460.384705 745.040466,461.111572 753.045715,454.290070   C756.320557,451.499420 758.036743,452.570068 760.487671,454.889954   C767.362244,461.396698 767.300476,463.342804 758.944519,468.103485   C746.453735,475.219971 733.745605,475.041016 721.494080,467.701202   C710.800293,461.294647 706.505188,451.160553 706.872131,438.972412   C707.358459,422.817963 720.841431,409.979950 736.972290,409.587982   C745.659546,409.376862 753.891296,410.147064 761.225220,415.325012   C766.796448,419.258453 766.698486,420.642151 762.081665,425.570923   C758.471375,429.425140 755.896240,429.942474 751.389893,426.441681   C744.670471,421.221558 737.118103,421.829102 729.642700,426.564453  z" />
<path fill="#E1F5EE" opacity="1.000000" stroke="none" d=" M355.350952,463.919403   C354.965607,466.753113 356.711060,470.168030 353.978577,471.248901   C349.928772,472.850861 345.392456,472.061859 341.219147,470.993530   C339.391083,470.525574 339.959198,468.130005 339.957306,466.529480   C339.943329,454.703308 339.983002,442.877045 340.012115,431.050812   C340.030334,423.650513 339.625977,423.247314 332.047211,423.217194   C330.714600,423.211914 329.381989,423.219208 328.049408,423.212097   C320.779541,423.173340 320.955933,423.076813 320.640411,416.055908   C320.432404,411.427521 322.076996,409.924927 326.615112,409.983551   C340.771301,410.166504 354.933929,410.161957 369.089203,409.932526   C373.885742,409.854797 375.490356,411.518890 375.364929,416.329987   C375.247711,420.825531 374.743652,423.898346 369.181213,423.292999   C366.381683,422.988342 363.513458,423.369568 360.694397,423.176208   C356.785583,422.908142 355.320984,424.648651 355.349915,428.452484   C355.438568,440.111877 355.362701,451.772552 355.350952,463.919403  z" />
</svg>