<?xml version='1.0' encoding='utf-8'?>
<svg xmlns="http://www.w3.org/2000/svg" version="1.1" id="Layer_1" x="0px" y="0px" width="100%" viewBox="0 0 1024 544" enable-background="new 0 0 1024 544" xml:space="preserve">
<path fill="#e1f5ee" opacity="1.000000" stroke="#e1f5ee" d=" M687.953979,381.884338   C667.302795,381.659729 647.146240,382.163208 626.980713,381.468933   C613.084656,380.990509 601.422119,375.929230 591.351990,366.740540   C584.582947,360.563995 578.099548,354.074341 571.330261,347.898010   C563.339478,340.607269 557.631104,332.058350 555.702515,321.255463   C555.520874,320.237885 555.259277,319.305145 553.271057,318.128571   C547.280640,325.831421 540.696960,333.396118 532.265442,338.961761   C523.938660,344.458344 515.220581,349.012756 504.918518,351.375702   C504.104736,341.078918 504.956207,331.719299 507.001465,322.441833   C507.610504,319.679230 508.216949,316.906921 509.027374,314.199768   C510.724091,308.531921 512.596069,302.965240 519.658264,301.833344   C520.380737,301.717529 521.002075,300.970520 521.933533,300.337555   C520.273376,298.429688 517.792114,300.105286 516.317017,298.497101   C515.522034,296.107452 517.323669,294.514587 518.394531,292.748108   C526.519531,279.344910 537.705017,268.558960 548.805664,257.755890   C553.502502,253.184891 555.516052,248.134933 554.778442,241.673431   C554.497131,239.208893 553.914551,237.143188 552.077515,235.482452   C551.830688,235.259293 551.561646,235.040176 551.380737,234.767517   C544.409058,224.257996 534.753052,221.356293 522.287354,222.034058   C502.987183,223.083405 502.416046,222.564041 490.211151,237.300674   C488.734528,239.083603 486.985657,240.843124 489.157104,243.614838   C493.035828,242.587860 494.907990,238.811401 498.145874,236.969421   C500.968567,235.363617 503.711731,231.835449 506.902863,233.480164   C509.714111,234.929108 508.121613,238.973328 508.205170,241.856186   C508.374023,247.683838 508.164551,253.521271 508.217590,259.353699   C508.313416,269.891113 504.883972,279.093597 497.227509,286.320740   C490.996704,292.202148 487.279327,298.764099 487.232239,307.615845   C487.196259,314.370544 484.655212,320.709137 480.649170,326.207153   C472.250153,337.734283 463.240906,348.634552 449.180115,353.718933   C443.172760,355.891174 436.964447,357.005310 430.590607,357.032684   C418.591309,357.084198 406.591614,357.034180 394.592072,357.029297   C388.074371,357.026672 387.348236,357.834930 389.495972,363.796753   C390.819122,367.469757 389.234314,368.147217 386.089203,368.273956   C377.836365,368.606567 369.831635,367.192566 361.888367,365.186249   C360.187317,364.756653 358.490082,363.544250 356.314911,365.307007   C357.723755,372.259644 362.139008,378.856232 361.152893,387.129944   C354.612671,386.520447 348.831299,384.697205 343.115326,382.556793   C337.383911,380.410583 332.541199,376.513733 326.579681,373.606537   C325.671356,380.971680 328.325806,387.843658 325.805573,394.337250   C323.608337,395.426697 322.101349,394.037384 320.532013,393.290588   C307.566162,387.120605 298.490845,377.306732 293.721283,363.767517   C292.271393,359.651703 290.044861,358.078522 285.680054,358.133270   C269.349701,358.338043 253.015442,358.226227 236.682648,358.244720   C229.851166,358.252441 229.348923,358.791534 229.226929,365.641174   C229.195068,367.429779 229.681793,369.317474 228.539871,370.960968   C216.342331,370.471313 200.422104,358.589203 196.856888,347.338623   C196.656067,346.704865 196.670654,345.897858 196.272766,345.447083   C188.527328,336.671600 192.722473,326.406219 192.969681,316.766907   C193.082581,312.365601 197.510147,310.482697 201.270126,308.946442   C209.905090,305.418335 218.566284,301.952789 227.250992,298.549042   C230.263855,297.368225 232.915604,295.930603 234.710938,293.037994   C236.712585,289.812927 240.016129,287.979065 243.274231,286.325684   C249.934158,282.946014 256.172485,278.697418 263.444397,276.552490   C266.528931,275.642639 265.931091,272.952515 265.771667,270.690674   C264.947723,259.000427 265.110107,247.434402 268.701477,236.090454   C271.302551,227.874588 275.497314,220.554825 280.394226,213.571014   C281.142517,212.503845 281.864929,211.291565 283.661377,211.236099   C289.319397,217.545258 290.601868,226.230728 295.168182,235.279007   C300.769623,225.437500 305.387299,216.666306 312.102234,209.314987   C318.807709,201.974060 326.576691,196.229156 335.544556,191.085251   C341.091949,205.695786 339.590271,219.836609 336.089203,233.611023   C338.607605,235.069412 339.653198,233.627731 340.759277,232.793808   C352.578094,223.882889 366.269043,219.241837 380.289398,215.319519   C383.849121,214.323654 385.183228,215.209427 384.678284,219.183868   C382.737457,234.460709 377.394043,248.189041 367.046356,259.786713   C366.275391,260.650848 365.592041,261.607819 364.979736,262.591217   C364.756042,262.950500 364.857666,263.512329 364.726868,264.824066   C376.853668,264.006256 388.985901,261.834534 401.250488,267.465057   C393.361633,280.546600 383.050323,290.444092 369.671661,297.136444   C371.146362,299.394592 372.792023,298.725800 374.158936,298.733551   C387.991425,298.811798 401.824890,298.761230 415.656769,298.888397   C418.862091,298.917847 421.444366,298.137756 423.687561,295.735779   C426.185181,293.061371 429.031555,290.716461 431.614990,288.117645   C435.981506,283.725006 436.757050,277.874237 432.109924,274.020691   C416.832062,261.351685 413.783234,244.650192 414.860565,226.249908   C415.084290,222.428986 414.912537,218.585510 414.943573,214.752594   C414.974701,210.909164 416.798523,210.057693 420.076660,211.736465   C422.003937,212.723419 423.877869,213.822510 425.841553,214.728699   C430.292664,216.782761 431.615387,216.015640 431.738892,211.315216   C432.218323,193.065308 439.693054,178.238052 453.593323,166.552078   C454.328796,165.933746 455.220215,165.500916 455.946777,165.040222   C459.348511,166.362579 458.196198,170.806122 461.409729,172.082565   C463.865875,170.996094 464.054932,168.456589 464.926514,166.412109   C472.379761,148.929001 483.753998,135.097382 501.384003,127.047386   C506.321899,124.792709 507.243927,125.289780 507.342712,130.649155   C507.448517,136.387848 507.366577,142.130005 507.366577,147.954453   C510.270630,147.918701 511.283691,145.961823 512.552185,144.582489   C524.502808,131.587296 539.783264,124.589554 556.423828,119.971603   C560.378357,118.874168 561.737305,120.482353 561.151367,124.250534   C560.229370,130.180344 559.052429,136.042084 556.770935,141.642273   C556.111389,143.261261 554.971985,145.112320 556.609924,146.763153   C558.097656,148.262604 559.792664,147.047150 561.311157,146.641647   C574.926758,143.005508 588.604736,142.658890 602.369751,145.677414   C603.987671,146.032211 605.661682,146.256348 606.968201,147.961548   C604.399902,156.160629 598.022156,161.859253 592.356812,167.608841   C593.712708,170.330719 595.680420,170.313141 597.434143,170.529724   C607.622314,171.787994 616.477905,176.231064 624.940247,181.738998   C628.101990,183.796906 628.126892,185.524353 625.131165,187.735138   C618.463562,192.655624 611.204590,196.124786 603.019958,197.732193   C596.288879,199.054123 596.137024,199.730164 600.037781,205.144272   C605.838257,213.195160 609.126282,222.130249 609.229004,232.129089   C609.278625,236.961777 609.291443,241.795074 609.288757,246.628067   C609.282227,258.508057 620.518921,270.740662 632.172852,269.588257   C645.753235,268.245361 655.814636,273.497986 665.346558,282.171967   C678.053406,293.735046 685.013062,308.380768 689.799438,324.407837   C690.626587,327.177460 689.272705,328.247314 686.809448,328.091614   C668.599487,326.940613 651.234802,324.329529 635.439575,313.147186   C627.652771,307.634460 621.208984,301.117554 614.177979,295.029572   C613.312866,294.280518 612.485718,293.240356 611.160278,293.691254   C609.655212,294.203308 609.428955,295.588409 609.332214,296.949860   C608.683655,306.074036 608.252563,315.123810 617.576050,320.816193   C618.132568,321.156006 618.649292,321.650085 619.024536,322.184662   C627.324036,334.007843 638.610229,337.140137 652.748718,336.058960   C668.655029,334.842590 684.726624,335.716431 700.725220,335.835175   C704.121521,335.860352 706.795044,334.944489 709.226257,332.539703   C717.162842,324.689148 725.224487,316.964905 733.242249,309.196442   C735.662720,306.851196 736.985352,304.477753 733.941833,301.574005   C724.660156,292.718719 715.428711,283.810699 706.153992,274.948059   C705.349182,274.178986 704.502869,273.187042 702.232910,274.416595   C705.089844,281.149200 712.681458,284.037750 716.462952,290.675995   C711.547363,292.030945 707.434814,292.329285 703.815308,289.106079   C686.394409,273.592529 668.918030,258.139160 651.651428,242.455261   C643.517090,235.066589 643.550964,226.743881 651.361572,219.025238   C659.538086,210.944931 667.957764,203.109695 676.096497,194.992203   C684.497925,186.612671 694.586426,182.926834 706.332886,182.982269   C727.331665,183.081406 748.331726,183.080460 769.330139,182.944992   C773.591919,182.917526 776.383484,184.181107 778.615601,188.059708   C782.933105,195.562119 787.698364,202.819168 792.532837,210.006546   C794.891785,213.513565 793.903687,215.491791 790.419189,216.911285   C786.517029,218.500900 782.467407,219.188889 778.226685,219.176575   C756.560913,219.113632 734.894836,219.150635 713.228882,219.146759   C703.280151,219.144974 699.102173,221.321838 692.569214,230.170166   C696.970520,235.275085 702.536926,239.224548 707.620605,243.681595   C708.819702,244.732880 710.088013,243.753967 711.373413,243.523132   C719.022400,242.149490 725.974304,241.727036 732.485840,248.206284   C746.295715,261.947723 760.967102,274.820099 775.177917,288.163177   C785.320679,297.686646 785.493042,309.434265 775.609558,319.169922   C757.920898,336.594116 740.051758,353.835327 722.386597,371.283173   C715.811951,377.776947 708.508972,382.039825 698.918335,381.544830   C695.442871,381.365387 691.938049,381.754456 687.953979,381.884338  M201.261505,323.158478   C201.249283,324.990997 201.396622,326.841461 201.193024,328.652466   C200.705582,332.988098 202.645142,334.708221 206.875168,334.698883   C230.866745,334.645966 254.858551,334.660767 278.850189,334.702118   C281.534698,334.706726 282.993042,333.885376 283.779785,331.009949   C287.010162,319.203735 294.373535,314.106110 306.609619,314.829895   C310.105316,315.036652 313.640045,315.463501 317.067902,314.651428   C321.712799,313.550995 325.708405,311.402832 328.638977,306.437378   C322.798859,305.759949 317.970032,307.158905 312.886688,305.649872   C313.755981,302.966919 315.867035,302.098877 317.398743,300.739105   C324.176666,294.721985 328.819763,287.711090 327.835541,278.131287   C327.658752,276.410156 327.827026,274.319916 325.308960,274.001282   C323.664612,274.853455 323.556488,276.379181 323.320160,277.858063   C322.428864,283.434875 319.832092,288.206055 316.449646,292.644623   C311.901093,298.613373 305.653931,302.428131 299.536255,306.484772   C293.614044,310.411835 286.937256,313.116882 282.063049,318.757263   C273.178589,329.038300 261.988098,330.069702 251.055267,321.974152   C247.676453,319.472321 244.175903,318.225189 239.959961,318.317841   C233.340607,318.463379 232.286270,319.048462 232.684479,311.397491   C232.874512,307.746185 231.308823,306.399109 227.805771,307.821075   C224.876328,309.010223 221.981613,310.284882 219.070816,311.520050   C216.857086,312.459381 216.268494,313.843353 217.077896,316.276245   C218.710266,321.182831 216.360962,324.640869 212.334030,327.193359   C210.959213,328.064789 209.411865,329.352631 207.766098,328.230011   C206.163284,327.136658 206.719681,325.213654 206.896698,323.592072   C207.082169,321.893066 208.502304,319.829224 205.737656,319.042328   C203.007004,318.265015 201.708603,319.795746 201.261505,323.158478  M219.886047,354.842102   C219.564575,350.619843 221.383224,348.637085 225.734680,349.025238   C227.716309,349.201965 229.728394,349.031311 231.726685,349.028168   C255.039688,348.991547 278.353271,349.037506 301.665375,348.873413   C308.845306,348.822876 313.921967,344.559387 315.391266,338.106567   C316.572266,332.919647 313.407013,326.778351 308.381348,324.505859   C303.450897,322.276398 297.932281,323.483795 294.992554,327.714569   C293.760345,329.487976 291.542755,331.799469 293.923309,333.812561   C296.255554,335.784790 297.574493,333.230560 299.011261,331.598969   C302.739075,327.365784 307.533112,328.353088 309.388947,333.630585   C311.122162,338.559418 308.139130,343.199341 302.645752,343.292572   C285.836670,343.577911 269.022980,343.656921 252.210922,343.680328   C238.407349,343.699554 224.603302,343.445190 210.799911,343.481171   C206.298981,343.492889 205.290909,345.567902 207.370316,349.678711   C209.513870,353.916412 213.523895,355.560486 217.653580,356.992645   C218.849670,357.407440 219.514297,356.690430 219.886047,354.842102  M262.978973,295.111694   C266.007660,293.966095 269.174866,294.051453 272.335114,294.042969   C280.812347,294.020233 289.291534,294.081085 297.766113,293.914612   C302.751373,293.816711 306.316284,291.378082 308.564240,286.930542   C306.443909,284.955811 304.360962,285.376678 302.422089,285.369171   C292.946838,285.332489 283.417847,285.995483 274.009796,285.202240   C262.738586,284.251892 254.459625,290.583252 245.505157,295.314209   C241.964310,297.184998 241.004944,300.705933 243.294830,304.733154   C250.340607,302.654785 255.937485,298.302795 262.978973,295.111694  M541.217285,188.688492   C542.848755,187.542770 544.530212,186.460892 546.097717,185.233490   C547.687134,183.988968 550.895142,183.377655 549.900269,180.786606   C548.844910,178.038116 545.760559,178.678574 543.287964,178.964798   C541.027588,179.226456 539.275696,180.477859 537.717163,182.030136   C535.127136,184.609695 532.533081,187.186020 529.984680,189.806427   C525.668701,194.244293 525.668396,195.831223 529.953796,200.116989   C539.822998,209.987228 549.687988,219.861908 559.601257,229.687790   C560.702942,230.779800 561.478149,232.547882 563.795593,232.253983   C565.630676,229.582230 563.280334,228.071198 561.881775,226.523590   C554.419250,218.265640 546.849060,210.105148 539.343933,201.885483   C532.620056,194.521423 532.635986,194.506866 541.217285,188.688492  M490.433228,223.932526   C495.291565,220.075684 498.404388,214.115295 505.112061,212.411285   C507.333649,211.846924 506.933472,209.281952 504.937500,208.867508   C499.743164,207.788956 494.404755,207.664169 489.197479,209.018326   C488.107758,209.301712 487.510162,210.558990 487.911896,212.085464   C489.712677,214.046631 493.180359,211.928085 494.992615,214.538788   C493.016174,218.889526 489.653168,220.675781 485.078766,220.729767   C482.262024,220.763000 479.422882,220.924408 476.643524,221.351807   C474.933014,221.614883 473.469177,222.865112 473.585144,224.753998   C473.711670,226.814774 475.591553,226.527878 477.056183,226.669296   C478.469940,226.805801 480.071686,226.193359 481.612488,228.099945   C478.667480,231.922928 475.685455,235.820847 470.523773,236.933334   C464.707733,238.186829 463.882385,239.624710 466.526886,246.763641   C475.197510,239.903214 482.276001,231.845901 490.433228,223.932526  M599.483887,230.092010   C599.056763,224.019485 597.614746,218.252029 594.240540,213.097137   C588.035522,203.617477 578.423218,197.621994 570.104309,190.282471   C574.278748,195.394165 579.145081,199.816757 583.940308,204.315216   C587.489685,207.644852 589.514221,211.619537 589.484375,216.678436   C589.450134,222.495956 589.772949,228.317276 590.008789,234.134186   C590.210876,239.116577 593.579285,243.395355 598.966797,245.208939   C600.480774,240.491318 599.522949,235.703857 599.483887,230.092010  M399.326294,340.831543   C402.876038,337.328461 406.415283,333.814667 409.979767,330.326630   C411.864105,328.482697 412.028931,326.650909 410.114136,324.725830   C405.191071,319.776428 400.324066,314.769928 395.334015,309.889160   C393.734680,308.324890 391.803070,307.384430 388.894867,310.187592   C394.741882,313.449188 397.738037,319.092743 402.255402,323.327759   C405.172302,326.062347 405.692139,328.389771 402.355042,331.049255   C401.190094,331.977661 400.058044,333.005249 399.130402,334.163300   C395.643860,338.515594 390.587433,341.397675 387.331421,346.058289   C389.598785,348.339630 391.633789,348.029724 393.451050,346.527771   C395.365356,344.945648 397.040802,343.074463 399.326294,340.831543  M466.673584,205.361038   C467.863464,204.378113 468.444183,202.366943 470.638519,203.002563   C471.673340,204.692612 471.182678,206.578934 471.351135,208.365967   C471.484406,209.779831 471.768372,211.115677 473.369385,211.400192   C474.651398,211.627991 475.518097,210.713409 476.254028,209.769394   C478.644409,206.703217 478.040985,196.568069 475.295441,193.599701   C461.684509,200.957642 454.079468,217.498672 459.573395,228.233612   C463.258972,225.063980 464.018890,221.079376 463.508636,216.558853   C463.074524,212.713318 462.963715,208.866714 466.673584,205.361038  M419.230499,340.740692   C420.464355,339.394440 421.645660,337.995209 422.940399,336.710297   C433.865967,325.867188 432.429626,327.692200 423.198364,318.007355   C420.336975,315.005341 417.356110,312.112000 414.333801,309.271149   C413.180298,308.186920 411.584808,307.678619 410.300079,308.961090   C408.737427,310.521057 410.282043,311.680634 411.247955,312.721497   C412.941162,314.545929 414.743073,316.269562 416.502838,318.032043   C425.773987,327.317627 425.716766,327.259644 416.248749,336.720520   C413.528259,339.438965 409.964874,341.614716 408.816711,346.280945   C414.009705,347.738617 415.929932,343.580902 419.230499,340.740692  M499.540558,188.028610   C501.022888,186.471420 502.694092,185.050034 503.937317,183.320953   C505.332947,181.379959 504.669678,179.516861 502.244446,179.431625   C496.529968,179.230698 490.509552,179.820068 486.501892,184.032730   C483.280121,187.419327 485.186737,192.575226 485.403595,196.947388   C485.509491,199.082123 487.423767,199.843750 489.397644,199.904678   C491.088257,199.956833 493.420837,199.759247 493.308624,197.809494   C493.041260,193.163559 496.555267,191.247635 499.540558,188.028610  M463.934906,269.493988   C468.049591,265.380157 472.204193,261.305054 476.253998,257.128357   C477.430267,255.915253 479.573578,254.576599 477.692169,252.590027   C475.799744,250.591782 474.403839,252.620453 473.157379,253.813751   C470.155731,256.687378 467.145325,259.564636 464.334717,262.620911   C462.270325,264.865753 460.614014,264.792023 458.547119,262.656464   C455.543060,259.552612 452.393097,256.585602 449.222626,253.649582   C448.109955,252.619156 446.977448,250.522369 445.150238,252.134552   C443.480164,253.608063 444.779694,255.240814 445.927551,256.451630   C449.929718,260.673370 453.986084,264.844604 458.072998,268.984528   C459.571625,270.502594 461.295990,271.408508 463.934906,269.493988  M515.350769,198.171478   C512.996338,196.097382 512.914490,194.123703 515.344910,191.943253   C517.318481,190.172653 519.169983,188.235428 520.872009,186.201721   C522.452820,184.312897 525.349548,183.139908 524.912048,180.011826   C523.237000,178.740051 521.756775,179.069672 520.628967,180.172836   C516.594482,184.119232 512.586670,188.100418 508.741455,192.229218   C507.062164,194.032379 507.150970,196.332184 508.855652,198.119278   C512.867493,202.325119 517.015015,206.402588 521.147644,210.491486   C522.116516,211.450073 523.394958,212.336685 524.653320,211.201691   C526.162170,209.840820 525.165771,208.390594 524.140869,207.289276   C521.425110,204.370972 518.599426,201.555023 515.350769,198.171478  M439.103485,293.582703   C435.976227,296.576202 432.841217,299.561676 429.724335,302.565918   C427.588562,304.624481 426.584747,306.806549 428.963531,309.359222   C432.166443,308.028168 444.935883,296.544403 446.147400,293.689911   C447.243500,291.107300 447.559875,288.413971 445.109955,284.642639   C444.170044,288.823242 441.858124,290.925537 439.103485,293.582703  M255.915527,314.870575   C257.193634,315.631256 258.398071,316.575928 259.762085,317.122131   C267.581635,320.253479 276.587402,316.056793 278.146881,308.672668   C278.563171,306.701477 278.594727,304.882202 276.268311,304.272858   C274.109436,303.707458 273.554565,305.292450 272.938934,307.009186   C270.068970,315.012177 265.185333,316.417206 258.774780,311.070068   C257.502838,310.009125 256.455383,309.097534 254.921005,310.303986   C252.907013,311.887604 254.268860,313.159760 255.915527,314.870575  M473.397919,306.838531   C470.614624,309.669342 467.808075,312.477905 465.061340,315.343781   C464.164398,316.279663 463.031677,317.282288 463.619843,318.782837   C464.191772,320.241882 465.687592,320.318542 466.974243,320.473541   C472.986359,321.197937 479.702209,312.979523 477.835480,307.195435   C477.032013,304.705719 475.491089,305.466034 473.397919,306.838531  M451.097900,242.419418   C452.654572,243.660995 453.644165,246.035065 456.792725,245.116409   C456.796600,240.386078 451.374664,238.801559 450.928162,234.554123   C450.494843,230.432526 451.564270,226.112961 449.904510,221.685532   C443.026947,228.743866 443.406494,234.972900 451.097900,242.419418  M453.146698,329.200470   C449.672882,329.666748 447.530975,331.558960 446.624786,334.918732   C454.359802,338.873352 464.267670,336.628052 463.719330,329.813293   C460.592773,328.558655 457.250885,329.375122 453.146698,329.200470  M457.902313,311.168060   C461.690338,306.260376 459.951324,300.778595 459.214844,295.541229   C458.989014,293.935303 456.989136,292.364288 455.086334,294.621155   C453.816895,296.126770 454.053101,309.517334 455.398468,311.078918   C455.725372,311.458344 456.597504,311.368073 457.902313,311.168060  M577.279053,228.921112   C578.067383,230.071930 579.031006,230.501205 580.098083,229.347351   C582.415588,226.841385 580.894470,220.705063 577.656555,219.731522   C575.763977,219.162476 573.491638,218.673096 572.151367,220.516418   C570.662781,222.563736 572.985657,223.679199 573.995544,225.016052   C574.886353,226.195297 575.940918,227.250793 577.279053,228.921112  M445.936707,315.065063   C443.854553,313.601654 442.528290,315.047882 441.304413,316.386902   C440.059082,317.749451 438.922821,319.320587 440.210693,321.235443   C441.258301,322.793060 442.642792,324.062500 444.739777,323.492676   C447.067841,322.860046 446.903778,320.838287 446.877594,319.038605   C446.861084,317.903137 446.570618,316.771698 445.936707,315.065063  M614.429382,274.450806   C613.726440,272.968506 613.105408,271.210632 611.006042,271.643250   C609.441956,271.965515 609.344116,273.464020 609.257446,274.798767   C609.101257,277.204987 609.596375,279.370850 611.627441,280.916992   C612.296753,281.426483 613.168884,281.828705 613.873230,281.207550   C615.850708,279.463470 614.559387,277.242737 614.429382,274.450806  M435.069550,345.537567   C438.297913,349.675751 440.995514,346.031403 443.894531,345.158264   C441.008392,342.996063 438.152985,342.239655 435.069550,345.537567  M478.706146,286.936615   C478.460693,285.500916 478.423431,283.909180 476.050293,283.762604   C474.908813,286.667877 474.667725,289.495941 476.282684,292.528839   C479.190063,291.736359 478.648132,289.559265 478.706146,286.936615  z" />
<path fill="#e1f5ee" opacity="1.000000" stroke="#e1f5ee" d=" M759.785400,62.763950   C789.539368,35.562126 832.444946,46.222969 847.994080,78.919655   C856.879517,97.603912 855.969849,116.401917 845.550659,133.929825   C831.266052,157.960526 815.894714,181.345276 800.985535,205.004593   C800.456238,205.844482 799.888428,206.660080 799.657898,207.006775   C796.535767,206.905762 795.795410,205.008545 794.846802,203.562469   C779.509216,180.181290 764.028320,156.871429 749.964355,132.704788   C736.485474,109.543274 740.702942,81.529549 759.785400,62.763950  M783.971313,116.486565   C785.510498,118.288261 787.439941,119.579742 789.528381,120.633270   C797.071167,124.438354 805.215271,123.225174 811.144531,117.443436   C817.217651,111.521339 818.790894,102.618805 815.116028,94.969292   C811.321899,87.071312 804.132263,83.077599 795.655212,84.159065   C780.739502,86.061951 774.494202,102.384712 783.971313,116.486565  z" />
</svg>